# xmcd
#
# Track frame offsets:
#	150
#	23932
#	41075
#	53646
#	75065
#	89804
#	106805
#	127902
#	150406
#	165032
#	180782
#	199065
#	216222
#	230847
#	252841
#	279656
#	303176
#
# Disc length: 4378 seconds
#
# Revision: 6
# Processed by: cddbd v1.5.2PL0 Copyright (c) Steve Scherf et al.
# Submitted via: audiograbber 1.83.01
#
DISCID=cb111811
DTITLE=Cream - Anthems 2007 CD3
DYEAR=2006
DGENRE=House
TTITLE0=Booka Shade - In White Rooms
TTITLE1=Ame - Rej
TTITLE2=Pete Heller - Simpler
TTITLE3=Sébastien Léger Feat. Gia Melllish - Hypnotized
TTITLE4=Philippe B - Ibiza Mi Amor
TTITLE5=Cedric Gervais Feat. Coraline - Spirit In My Life
TTITLE6=M.Y.N.C Project - R U Sure
TTITLE7=Tonite Only - Danger
TTITLE8=Sugiurumn Feat. Miyuki Hatakeyama - Star Baby
TTITLE9=Abel Ramos - Electro Fun
TTITLE10=Kg - Return Of The Cowboy
TTITLE11=Mind Electric - Dirty Cash
TTITLE12=Gabriel and Dresden - Dangerous Power
TTITLE13=Gabriel Ananda - Doppelwhipper
TTITLE14=Cosmic Gate Feat. Tiff Lacey - Should've Known
TTITLE15=Alex M.O.R.P.H. and Rank 1 - Life Less Ordinary
TTITLE16=Judge Jules and Katie Marne Feat. Cara Dillon - Ordinary Day
EXTD=
EXTT0=
EXTT1=
EXTT2=
EXTT3=
EXTT4=
EXTT5=
EXTT6=
EXTT7=
EXTT8=
EXTT9=
EXTT10=
EXTT11=
EXTT12=
EXTT13=
EXTT14=
EXTT15=
EXTT16=
PLAYORDER=
